<mxfile host="app.diagrams.net" modified="2023-03-27T06:49:09.830Z" agent="Mozilla/5.0 (Windows NT 10.0; Win64; x64) AppleWebKit/537.36 (KHTML, like Gecko) Chrome/111.0.0.0 Safari/537.36" version="21.1.1" etag="Hgw6TT2L0MU7oX89SpMD" type="github">
  <diagram name="Page-1" id="rf2wowenct8OBc_G_Bc3">
    <mxGraphModel>
      <root>
        <mxCell id="0" />
        <mxCell id="1" parent="0" />
      </root>
    </mxGraphModel>
  </diagram>
</mxfile>
